<?xml version="1.0" encoding="utf-8"?>
<svg viewBox="12.775 153.429 455.5766 120" xmlns="http://www.w3.org/2000/svg">
  <path d="M 12.775 181.091 C 12.775 173.318 21.255 168.517 27.92 172.516 L 53.065 187.603 C 59.089 191.217 62.775 197.728 62.775 204.753 L 62.775 222.105 C 62.775 229.131 59.089 235.641 53.065 239.255 L 27.92 254.342 C 21.255 258.341 12.775 253.54 12.775 245.767 L 12.775 181.091 Z" style="fill: rgb(116, 108, 250);" transform="matrix(1, 0, 0, 1, 0, 7.105427357601002e-15)"/>
  <path d="M 116.63 153.429 C 121.926 153.429 124.625 159.791 120.944 163.599 L 107.672 177.329 C 103.903 181.228 98.714 183.429 93.292 183.429 L 68.315 183.429 C 64.69 183.429 61.133 182.444 58.025 180.579 L 31.35 164.574 C 26.132 161.443 28.352 153.429 34.437 153.429 L 116.63 153.429 Z" style="fill: rgb(245, 76, 76);" transform="matrix(1, 0, 0, 1, 0, 7.105427357601002e-15)"/>
  <path d="M 116.63 273.429 C 121.926 273.429 124.625 267.067 120.944 263.259 L 107.672 249.529 C 103.903 245.63 98.714 243.429 93.292 243.429 L 68.315 243.429 C 64.69 243.429 61.133 244.414 58.025 246.279 L 31.35 262.284 C 26.132 265.415 28.352 273.429 34.437 273.429 L 116.63 273.429 Z" style="fill: rgb(245, 76, 76);" transform="matrix(1, 0, 0, 1, 0, 7.105427357601002e-15)"/>
  <rect x="68.775" y="198.429" width="30" height="30" rx="15" style="fill: rgb(116, 108, 250);" transform="matrix(1, 0, 0, 1, 0, 7.105427357601002e-15)"/>
  <text style="fill: rgb(51, 51, 51); font-family: Arial, sans-serif; font-size: 97px; font-weight: 700; white-space: pre;" x="157.674" y="247.404" transform="matrix(1, 0, 0, 1, 0, 7.105427357601002e-15)">Todoly</text>
</svg>